<svg id="svg" version="1.1" xmlns="http://www.w3.org/2000/svg" xmlns:xlink="http://www.w3.org/1999/xlink" width="400" height="400" viewBox="0, 0, 400,400"><g id="svgg"><path id="path0" d="M188.200 7.178 C 183.171 8.023,182.416 9.229,181.828 17.367 C 181.524 21.571,181.919 21.035,182.426 16.555 C 183.221 9.535,186.045 7.200,193.741 7.200 C 201.094 7.200,204.035 9.424,205.013 15.727 C 205.480 18.740,205.524 18.839,205.560 16.973 C 205.661 11.828,204.475 8.837,201.930 7.819 C 200.029 7.058,191.332 6.652,188.200 7.178 M207.107 19.090 C 207.826 19.179,208.906 19.177,209.507 19.086 C 210.108 18.995,209.520 18.922,208.200 18.924 C 206.880 18.926,206.388 19.001,207.107 19.090 M213.800 19.429 C 214.240 19.540,215.003 19.717,215.495 19.822 C 216.682 20.075,217.579 21.518,218.016 23.875 L 218.372 25.800 218.208 23.433 C 218.006 20.525,217.221 19.602,214.759 19.383 C 213.791 19.297,213.360 19.318,213.800 19.429 M181.340 27.600 C 181.340 29.470,181.409 30.235,181.493 29.300 C 181.577 28.365,181.577 26.835,181.493 25.900 C 181.409 24.965,181.340 25.730,181.340 27.600 M219.300 31.476 C 219.685 31.576,220.315 31.576,220.700 31.476 C 221.085 31.375,220.770 31.293,220.000 31.293 C 219.230 31.293,218.915 31.375,219.300 31.476 M227.516 31.960 C 229.121 32.381,230.298 33.393,230.523 34.542 L 230.691 35.400 230.746 34.544 C 230.833 33.168,229.578 31.996,227.800 31.795 C 226.274 31.622,226.261 31.630,227.516 31.960 M181.363 38.400 C 181.363 42.030,181.423 43.515,181.498 41.700 C 181.572 39.885,181.572 36.915,181.498 35.100 C 181.423 33.285,181.363 34.770,181.363 38.400 M230.928 39.600 C 230.928 41.030,231.001 41.615,231.089 40.900 C 231.178 40.185,231.178 39.015,231.089 38.300 C 231.001 37.585,230.928 38.170,230.928 39.600 M237.940 44.431 C 240.931 44.819,242.296 45.598,242.629 47.105 C 243.031 48.932,243.135 49.056,243.168 47.744 C 243.229 45.321,240.948 43.959,237.000 44.060 C 235.752 44.092,235.959 44.174,237.940 44.431 M243.328 52.000 C 243.328 53.430,243.401 54.015,243.489 53.300 C 243.578 52.585,243.578 51.415,243.489 50.700 C 243.401 49.985,243.328 50.570,243.328 52.000 M181.800 53.142 C 181.895 54.321,182.139 55.491,182.343 55.742 C 182.547 55.994,182.933 57.280,183.202 58.600 C 184.268 63.829,186.136 65.716,191.300 66.782 C 192.565 67.043,193.600 67.454,193.600 67.695 C 193.600 67.936,193.706 68.027,193.837 67.897 C 194.572 67.161,193.412 66.002,191.338 65.399 C 188.214 64.491,185.498 61.747,184.573 58.566 C 184.202 57.290,183.553 55.966,183.130 55.623 C 182.694 55.270,182.203 54.134,181.994 53.000 L 181.627 51.000 181.800 53.142 M246.400 57.236 C 252.690 58.071,254.438 59.965,255.202 66.780 C 255.724 71.438,256.085 72.067,255.767 67.767 C 255.076 58.398,254.289 57.417,247.158 57.038 L 243.400 56.838 246.400 57.236 M194.093 79.600 C 194.093 80.370,194.175 80.685,194.276 80.300 C 194.376 79.915,194.376 79.285,194.276 78.900 C 194.175 78.515,194.093 78.830,194.093 79.600 M194.452 83.027 C 194.262 90.457,196.019 92.494,203.000 92.945 L 206.600 93.177 203.325 92.640 C 197.259 91.647,195.593 89.945,194.869 84.000 C 194.533 81.242,194.499 81.164,194.452 83.027 M261.462 81.957 C 266.345 82.580,267.406 83.615,268.019 88.354 L 268.362 91.000 268.189 87.937 C 267.899 82.784,267.214 82.100,262.063 81.813 C 259.100 81.648,259.080 81.653,261.462 81.957 M206.883 98.000 C 206.837 103.393,208.163 105.106,212.603 105.393 C 215.387 105.573,215.390 105.572,213.281 105.187 C 208.984 104.404,207.856 103.111,207.220 98.239 L 206.901 95.800 206.883 98.000 M268.548 101.600 C 268.548 103.910,268.614 104.855,268.695 103.700 C 268.776 102.545,268.776 100.655,268.695 99.500 C 268.614 98.345,268.548 99.290,268.548 101.600 M216.705 105.883 C 217.202 105.979,217.922 105.975,218.305 105.875 C 218.687 105.775,218.280 105.696,217.400 105.701 C 216.520 105.705,216.207 105.787,216.705 105.883 M269.505 106.683 C 270.002 106.779,270.722 106.775,271.105 106.675 C 271.487 106.575,271.080 106.496,270.200 106.501 C 269.320 106.505,269.007 106.587,269.505 106.683 M275.251 107.207 C 278.821 107.810,279.841 108.929,280.402 112.860 L 280.765 115.400 280.572 112.413 C 280.289 108.041,278.916 106.718,274.800 106.849 C 273.513 106.890,273.550 106.919,275.251 107.207 M219.801 110.670 C 220.040 115.332,221.273 116.899,225.231 117.569 C 228.372 118.101,232.759 118.379,231.800 117.985 C 231.360 117.804,230.280 117.641,229.400 117.623 C 223.454 117.501,220.828 115.131,219.846 109.000 C 219.740 108.340,219.720 109.091,219.801 110.670 M237.100 118.689 C 237.815 118.778,238.985 118.778,239.700 118.689 C 240.415 118.601,239.830 118.528,238.400 118.528 C 236.970 118.528,236.385 118.601,237.100 118.689 M282.100 119.087 C 282.705 119.178,283.695 119.178,284.300 119.087 C 284.905 118.995,284.410 118.920,283.200 118.920 C 281.990 118.920,281.495 118.995,282.100 119.087 M289.377 119.596 C 291.130 119.933,292.800 121.540,292.800 122.889 C 292.800 123.353,292.912 123.622,293.048 123.485 C 294.459 122.074,291.593 119.135,288.913 119.246 C 288.018 119.283,288.109 119.351,289.377 119.596 M244.101 125.800 C 244.105 126.680,244.187 126.993,244.283 126.495 C 244.379 125.998,244.375 125.278,244.275 124.895 C 244.175 124.513,244.096 124.920,244.101 125.800 M293.328 127.200 C 293.328 128.630,293.401 129.215,293.489 128.500 C 293.578 127.785,293.578 126.615,293.489 125.900 C 293.401 125.185,293.328 125.770,293.328 127.200 M244.425 128.224 C 244.384 129.565,245.298 130.407,247.001 130.596 C 248.057 130.713,248.261 130.676,247.600 130.486 C 246.018 130.033,245.276 129.470,244.848 128.397 C 244.497 127.517,244.448 127.497,244.425 128.224 M251.891 131.089 C 252.601 131.177,253.861 131.179,254.691 131.092 C 255.521 131.005,254.940 130.933,253.400 130.931 C 251.860 130.929,251.181 131.000,251.891 131.089 M256.501 132.600 C 256.505 133.480,256.587 133.793,256.683 133.295 C 256.779 132.798,256.775 132.078,256.675 131.695 C 256.575 131.313,256.496 131.720,256.501 132.600 M297.157 132.246 C 303.044 133.102,304.449 134.400,305.204 139.676 C 305.562 142.175,305.564 142.167,305.394 138.880 C 305.115 133.483,304.205 132.583,298.406 131.973 C 293.487 131.455,292.779 131.610,297.157 132.246 M256.978 137.914 C 257.214 141.901,258.786 143.268,263.000 143.151 C 264.509 143.109,264.476 143.086,262.416 142.745 C 258.800 142.145,257.887 141.230,257.215 137.528 L 256.829 135.400 256.978 137.914 M267.500 143.493 C 268.435 143.577,269.203 143.681,269.207 143.723 C 270.240 154.919,271.136 155.686,283.000 155.534 L 287.800 155.472 282.184 155.204 C 273.072 154.768,270.978 153.304,270.045 146.713 C 269.560 143.289,269.483 143.186,267.476 143.270 L 265.800 143.340 267.500 143.493 M305.147 147.684 C 304.671 152.745,302.850 154.582,297.715 155.179 L 295.000 155.495 297.200 155.538 C 303.597 155.662,305.927 153.252,305.523 146.926 C 305.405 145.071,305.391 145.099,305.147 147.684 M291.900 155.882 C 292.395 155.978,293.205 155.978,293.700 155.882 C 294.195 155.787,293.790 155.709,292.800 155.709 C 291.810 155.709,291.405 155.787,291.900 155.882 M37.600 169.451 C 37.050 169.539,35.836 169.709,34.902 169.830 C 33.968 169.950,32.708 170.454,32.102 170.949 C 31.496 171.445,30.100 172.181,29.000 172.586 C 26.297 173.580,23.511 176.397,22.555 179.100 C 21.987 180.706,21.620 181.200,20.995 181.200 C 20.546 181.200,19.823 181.443,19.389 181.741 C 18.955 182.039,17.522 182.405,16.204 182.556 C 10.548 183.202,8.535 185.146,7.626 190.837 C 7.395 192.280,7.024 193.987,6.801 194.630 C 5.974 197.010,6.472 304.243,7.313 305.086 C 7.911 305.685,8.885 305.821,13.354 305.930 L 18.682 306.060 18.911 311.130 C 19.173 316.932,19.320 317.490,20.755 318.123 C 21.956 318.652,102.362 319.067,111.543 318.591 C 118.508 318.229,118.226 318.513,118.602 311.496 L 118.891 306.106 123.627 305.911 C 130.989 305.608,130.947 305.677,130.961 293.800 C 130.970 285.315,130.695 283.411,129.325 282.514 C 127.722 281.464,119.968 281.262,79.900 281.230 L 43.600 281.200 43.600 275.018 L 43.600 268.835 80.100 268.717 C 100.175 268.652,116.901 268.450,117.269 268.268 C 118.280 267.769,118.423 267.070,118.682 261.349 L 118.920 256.076 124.293 255.938 C 131.962 255.741,131.297 259.076,131.124 221.677 L 131.000 194.754 130.106 194.077 C 129.605 193.697,128.927 192.434,128.563 191.200 C 127.265 186.807,125.378 184.885,121.493 183.999 C 120.160 183.696,119.092 183.159,118.553 182.522 C 117.740 181.560,117.479 181.512,111.846 181.301 C 105.122 181.050,105.808 181.590,105.425 176.236 C 105.148 172.354,104.351 170.823,102.180 170.004 C 100.686 169.441,40.866 168.928,37.600 169.451 M168.898 169.629 C 159.984 170.314,158.194 171.745,157.365 178.846 L 157.102 181.093 151.504 181.377 C 143.641 181.776,144.000 181.413,144.000 188.967 L 144.000 193.882 139.829 194.152 C 131.270 194.705,131.835 193.123,131.671 217.000 C 131.483 244.335,131.024 242.653,138.862 243.312 L 143.888 243.735 144.155 248.136 C 144.622 255.825,144.422 255.710,157.600 255.888 C 171.312 256.074,170.607 255.930,171.416 258.716 C 172.712 263.171,174.585 265.098,178.507 266.011 C 179.658 266.278,181.088 266.953,181.685 267.509 L 182.771 268.521 194.585 268.716 L 206.400 268.911 206.400 275.037 L 206.400 281.163 175.814 281.281 C 147.508 281.391,145.177 281.451,144.540 282.088 C 143.484 283.145,143.484 316.855,144.540 317.912 C 145.339 318.711,218.892 319.170,233.673 318.468 C 243.368 318.007,243.564 317.815,243.592 308.755 L 243.600 306.110 248.313 305.916 C 253.247 305.712,254.449 305.364,255.291 303.891 C 255.969 302.704,256.261 249.254,255.602 246.808 C 254.968 244.452,254.372 244.285,245.426 243.942 C 238.460 243.676,237.403 243.549,237.063 242.941 C 236.403 241.761,233.527 238.802,232.384 238.127 C 231.450 237.575,231.271 237.158,231.084 235.097 C 230.748 231.389,230.363 231.300,214.500 231.235 L 206.000 231.200 205.990 227.500 C 205.973 220.543,205.400 219.570,201.112 219.205 C 199.511 219.068,207.830 218.855,219.600 218.732 C 243.161 218.486,242.613 218.539,243.191 216.455 C 243.729 214.518,243.723 185.233,243.183 178.583 C 242.578 171.127,242.030 170.290,237.304 169.607 C 234.091 169.142,174.982 169.162,168.898 169.629 M266.754 169.587 C 257.223 170.369,256.103 173.212,256.507 195.600 C 256.861 215.153,257.477 216.732,265.134 217.699 L 268.713 218.151 268.892 229.575 C 269.120 244.206,268.617 243.258,276.300 243.526 L 281.200 243.697 281.219 253.948 C 281.268 280.302,281.286 280.362,289.040 280.702 L 293.481 280.896 293.740 286.311 C 293.883 289.290,294.000 294.680,294.000 298.290 C 294.000 301.899,294.149 305.156,294.331 305.526 C 294.513 305.897,294.521 310.430,294.349 315.600 C 294.176 320.770,293.918 329.251,293.775 334.447 L 293.514 343.894 288.844 344.086 C 283.478 344.307,282.602 344.642,281.996 346.705 C 280.984 350.146,281.002 391.185,282.015 392.824 C 282.570 393.722,316.890 393.681,317.789 392.782 C 318.260 392.311,318.469 390.821,318.664 386.535 L 318.920 380.906 322.560 380.634 C 330.682 380.028,331.195 378.469,331.198 354.361 L 331.200 343.722 335.988 343.481 C 343.761 343.091,343.344 343.911,343.532 328.672 C 343.638 320.127,343.810 316.710,344.140 316.623 C 350.595 314.927,352.480 313.326,353.632 308.560 C 353.893 307.482,354.487 306.296,354.953 305.923 C 355.764 305.275,355.811 304.805,356.054 294.723 C 356.194 288.936,356.329 283.462,356.354 282.560 L 356.400 280.921 360.574 280.684 C 365.411 280.410,366.906 279.818,367.571 277.912 C 368.218 276.058,368.783 264.689,368.792 253.358 L 368.800 243.716 373.700 243.495 C 381.382 243.148,380.863 244.152,381.108 229.152 L 381.294 217.704 383.713 217.451 C 389.374 216.860,391.457 214.873,392.373 209.193 C 392.603 207.767,392.973 205.971,393.195 205.203 C 393.713 203.415,393.726 184.570,393.212 181.624 C 392.998 180.401,392.620 178.088,392.372 176.484 C 391.398 170.178,386.755 168.798,368.200 169.302 C 358.059 169.577,357.357 170.070,356.922 177.214 C 356.681 181.168,356.671 181.200,355.640 181.228 C 349.796 181.385,345.524 181.905,344.893 182.536 C 344.279 183.149,344.175 184.545,343.977 194.804 C 343.854 201.171,343.654 206.479,343.532 206.601 C 343.411 206.723,341.864 206.987,340.095 207.189 C 335.553 207.707,334.138 208.385,333.213 210.486 C 332.090 213.036,331.200 223.767,331.200 234.749 L 331.200 244.000 325.000 244.000 L 318.800 244.000 318.772 234.700 C 318.756 229.585,318.591 224.050,318.404 222.400 C 316.970 209.714,316.244 208.472,309.699 207.518 L 306.498 207.051 306.249 204.667 C 306.112 203.356,305.999 198.484,305.998 193.841 C 305.995 181.824,305.881 181.600,299.796 181.600 C 298.210 181.600,296.102 181.489,295.113 181.354 L 293.315 181.107 293.075 177.168 C 292.623 169.752,292.183 169.497,279.600 169.365 C 274.650 169.313,268.869 169.413,266.754 169.587 M93.600 225.000 L 93.600 231.200 68.600 231.200 L 43.600 231.200 43.600 225.000 L 43.600 218.800 68.600 218.800 L 93.600 218.800 93.600 225.000 M184.900 281.898 C 182.865 281.971,179.535 281.971,177.500 281.898 C 175.465 281.825,177.130 281.766,181.200 281.766 C 185.270 281.766,186.935 281.825,184.900 281.898 " stroke="none" fill="#fcfcfc" fill-rule="evenodd"></path><path id="path1" d="M185.365 7.177 C 183.102 7.718,181.971 9.381,182.027 12.087 C 182.052 13.300,182.093 13.257,182.559 11.522 C 183.372 8.506,184.282 7.809,188.200 7.207 L 190.200 6.900 188.400 6.891 C 187.410 6.886,186.044 7.015,185.365 7.177 M199.200 7.156 C 203.209 7.736,204.438 8.811,205.198 12.400 L 205.579 14.200 205.423 11.949 C 205.162 8.167,204.112 7.269,199.635 6.998 L 197.000 6.838 199.200 7.156 M189.200 7.755 C 184.428 8.813,183.110 10.518,182.431 16.511 C 182.212 18.442,181.914 20.216,181.767 20.453 C 181.621 20.690,181.530 27.480,181.565 35.542 C 181.695 64.766,182.191 66.503,190.700 67.512 C 194.160 67.922,194.547 67.452,191.300 66.783 C 186.102 65.711,184.230 63.796,183.184 58.480 C 182.913 57.105,182.536 55.884,182.346 55.767 C 182.156 55.649,182.011 55.158,182.025 54.676 L 182.051 53.800 182.400 54.666 C 182.592 55.142,183.007 55.682,183.323 55.866 C 183.639 56.050,184.201 57.254,184.572 58.543 C 185.498 61.756,188.198 64.486,191.357 65.405 C 192.591 65.763,193.628 66.269,193.662 66.528 C 193.868 68.082,193.932 69.816,194.055 77.200 C 194.130 81.710,194.284 84.410,194.397 83.200 L 194.602 81.000 194.910 84.000 C 195.516 89.900,197.270 91.690,203.325 92.592 C 205.460 92.910,206.252 93.151,205.600 93.285 C 204.667 93.477,204.661 93.495,205.500 93.546 C 206.333 93.596,206.404 93.801,206.457 96.300 C 206.507 98.698,206.546 98.821,206.800 97.400 L 207.086 95.800 207.161 97.600 C 207.358 102.392,209.126 104.567,213.261 105.108 L 215.400 105.388 213.600 105.665 C 212.573 105.824,213.303 105.860,215.300 105.750 C 217.715 105.618,218.800 105.696,218.800 106.003 C 218.800 106.247,218.935 106.364,219.100 106.262 C 219.265 106.160,219.412 107.995,219.428 110.339 C 219.472 117.172,220.174 117.866,227.366 118.182 L 231.400 118.358 227.838 117.983 C 221.662 117.331,220.075 115.897,219.806 110.727 C 219.722 109.117,219.740 108.340,219.846 109.000 C 220.821 115.088,223.551 117.577,229.274 117.595 C 230.085 117.598,231.255 117.807,231.874 118.059 C 232.493 118.311,235.380 118.546,238.289 118.581 C 244.635 118.657,243.972 118.049,244.097 123.912 C 244.154 126.580,244.322 128.456,244.472 128.081 C 244.727 127.441,244.745 127.441,244.772 128.084 C 244.787 128.461,245.194 129.136,245.675 129.584 C 246.391 130.251,246.431 130.400,245.895 130.400 C 245.535 130.400,245.056 130.085,244.832 129.700 C 244.608 129.315,244.419 129.203,244.412 129.451 C 244.388 130.333,245.447 130.775,246.987 130.525 C 248.139 130.338,248.449 130.397,248.224 130.762 C 247.992 131.137,248.701 131.185,251.327 130.972 C 253.198 130.820,255.205 130.815,255.785 130.960 L 256.840 131.225 256.641 134.713 C 256.532 136.631,256.574 137.570,256.734 136.800 C 257.025 135.407,257.028 135.410,257.293 137.489 C 257.758 141.128,258.860 142.242,262.449 142.700 C 264.569 142.970,264.580 142.978,263.200 143.264 C 262.430 143.424,263.447 143.462,265.460 143.350 C 269.675 143.115,269.519 143.001,270.045 146.713 C 270.981 153.326,273.114 154.811,282.200 155.175 L 287.800 155.400 282.800 155.622 C 279.631 155.762,281.755 155.835,288.600 155.822 C 294.540 155.810,298.410 155.709,297.200 155.597 L 295.000 155.394 297.684 155.144 C 302.762 154.672,304.672 152.762,305.144 147.684 L 305.394 145.000 305.617 147.200 C 305.741 148.412,305.842 146.794,305.844 143.600 C 305.845 140.408,305.745 138.789,305.621 140.000 L 305.395 142.200 305.137 139.713 C 304.641 134.944,302.992 133.116,298.549 132.410 L 296.200 132.037 299.000 132.168 C 303.243 132.368,304.559 133.258,305.259 136.400 C 305.524 137.590,305.549 137.502,305.425 135.813 C 305.173 132.389,302.342 131.157,296.231 131.811 L 293.688 132.084 293.405 129.642 C 293.249 128.299,293.228 126.075,293.359 124.700 C 293.518 123.027,293.474 122.465,293.227 123.000 C 292.875 123.759,292.855 123.753,292.828 122.869 C 292.813 122.357,292.274 121.412,291.631 120.769 C 290.988 120.126,290.683 119.600,290.954 119.600 C 291.608 119.600,292.655 120.451,292.922 121.200 C 293.097 121.688,293.143 121.675,293.168 121.129 C 293.233 119.764,292.072 119.165,289.863 119.422 C 288.283 119.606,287.941 119.557,288.400 119.211 C 288.851 118.872,288.033 118.827,285.100 119.028 L 281.200 119.295 281.172 116.548 C 281.152 114.621,281.040 114.039,280.795 114.600 C 280.569 115.119,280.474 114.159,280.523 111.867 C 280.609 107.939,279.935 106.758,277.656 106.836 C 276.655 106.870,276.667 106.892,277.882 107.243 C 279.452 107.697,280.407 108.978,280.377 110.589 L 280.355 111.800 279.877 110.437 C 279.244 108.630,277.720 107.565,275.346 107.271 L 273.400 107.031 274.800 106.735 C 275.580 106.571,274.575 106.525,272.534 106.632 L 268.869 106.824 268.599 105.594 C 268.450 104.917,268.366 101.807,268.411 98.682 C 268.510 91.860,268.214 84.055,267.822 83.131 C 267.380 82.090,266.538 81.904,261.600 81.754 C 255.789 81.578,256.207 81.711,256.158 80.033 C 256.136 79.245,256.049 75.360,255.965 71.400 C 255.875 67.148,255.729 65.183,255.607 66.600 L 255.400 69.000 255.119 66.052 C 254.552 60.098,252.367 57.911,246.400 57.323 C 243.842 57.071,243.606 56.989,244.800 56.766 L 246.200 56.505 244.938 56.453 C 243.429 56.390,242.945 54.336,243.339 49.663 C 243.483 47.956,243.441 47.359,243.221 48.000 L 242.880 49.000 242.840 47.882 C 242.792 46.532,241.185 44.815,239.918 44.760 L 239.000 44.720 239.911 44.460 C 240.412 44.317,238.727 44.165,236.166 44.122 C 230.543 44.027,230.996 44.461,231.020 39.192 C 231.032 36.583,230.891 34.944,230.665 35.083 C 230.439 35.223,230.396 34.745,230.557 33.889 C 230.952 31.785,229.879 31.485,222.100 31.524 L 218.800 31.540 218.800 29.516 C 218.800 28.403,218.627 26.842,218.416 26.046 C 218.205 25.251,217.923 23.905,217.790 23.055 C 217.656 22.206,217.117 21.081,216.592 20.555 C 216.031 19.995,215.851 19.600,216.156 19.600 C 216.822 19.600,217.861 20.768,218.112 21.800 C 218.289 22.524,218.312 22.515,218.354 21.700 C 218.437 20.075,217.076 19.182,214.907 19.440 C 213.443 19.613,213.139 19.562,213.600 19.216 C 214.050 18.879,213.174 18.834,210.100 19.035 L 206.000 19.303 205.937 17.152 L 205.874 15.000 205.631 17.000 L 205.388 19.000 205.074 16.145 C 204.252 8.665,198.591 5.672,189.200 7.755 M181.728 16.000 C 181.728 17.430,181.801 18.015,181.889 17.300 C 181.978 16.585,181.978 15.415,181.889 14.700 C 181.801 13.985,181.728 14.570,181.728 16.000 M230.008 32.610 C 230.776 33.535,230.321 33.629,229.256 32.766 C 228.612 32.244,228.501 32.000,228.907 32.000 C 229.234 32.000,229.730 32.274,230.008 32.610 M242.114 45.300 C 242.601 45.795,243.062 46.059,243.138 45.887 C 243.339 45.428,242.390 44.400,241.765 44.400 C 241.420 44.400,241.544 44.721,242.114 45.300 M249.828 57.164 C 253.349 57.739,254.535 58.824,255.168 62.048 L 255.512 63.800 255.556 62.287 C 255.660 58.703,254.260 57.293,250.318 57.012 C 247.877 56.838,247.862 56.843,249.828 57.164 M266.137 82.444 C 267.261 82.956,268.008 84.362,267.982 85.919 C 267.967 86.881,267.904 86.829,267.412 85.450 C 266.726 83.523,266.477 83.274,264.550 82.588 C 263.171 82.096,263.119 82.033,264.081 82.018 C 264.676 82.008,265.601 82.200,266.137 82.444 M194.446 87.200 C 194.323 91.338,195.702 92.762,200.060 93.001 C 202.770 93.149,202.828 93.136,200.800 92.843 C 196.779 92.262,195.523 91.158,194.835 87.600 C 194.502 85.874,194.486 85.858,194.446 87.200 M206.843 101.240 C 206.732 103.923,208.283 105.651,210.719 105.559 C 211.727 105.521,211.711 105.497,210.484 105.206 C 208.647 104.771,207.689 103.775,207.257 101.850 C 206.984 100.637,206.874 100.475,206.843 101.240 M257.008 140.395 C 257.272 142.152,257.849 142.728,259.605 142.990 L 261.000 143.197 259.750 142.800 C 258.309 142.342,257.695 141.705,257.172 140.126 C 256.826 139.082,256.814 139.101,257.008 140.395 M269.422 148.475 C 269.713 154.128,270.529 155.164,274.886 155.422 C 277.285 155.564,277.315 155.555,275.534 155.223 C 271.394 154.453,270.169 152.942,269.578 147.879 L 269.242 145.000 269.422 148.475 M305.088 151.423 C 304.759 153.382,303.522 154.637,301.387 155.180 L 299.800 155.583 301.716 155.439 C 304.537 155.226,306.086 153.230,305.518 150.540 C 305.429 150.122,305.243 150.505,305.088 151.423 " stroke="none" fill="#ac94dc" fill-rule="evenodd"></path><path id="path2" d="" stroke="none" fill="#100e0ec" fill-rule="evenodd"></path><path id="path3" d="" stroke="none" fill="#100e0ec" fill-rule="evenodd"></path><path id="path4" d="" stroke="none" fill="#100e0ec" fill-rule="evenodd"></path></g></svg>