<svg height="512" viewBox="0 0 64 64" width="512" xmlns="http://www.w3.org/2000/svg"><g id="Expand-Resize-Arrow-Arrows-Direction"><path d="m59 2h-14a4 4 0 0 0 0 8h3.34l-16.33 16.33a4 4 0 0 0 5.66 5.66l16.33-16.33v3.34a4 4 0 0 0 8 0v-14a3.009 3.009 0 0 0 -3-3zm1 17a2 2 0 0 1 -4 0v-5.76a1 1 0 0 0 -1.71-.7l-18.04 18.04a2.061 2.061 0 0 1 -2.83 0 2.016 2.016 0 0 1 0-2.83l18.04-18.04a1 1 0 0 0 -.7-1.71h-5.76a2 2 0 0 1 0-4h14a1 1 0 0 1 1 1z"/><path d="m58 27a4 4 0 0 0 -4 4v22a1 1 0 0 1 -1 1h-42a1 1 0 0 1 -1-1v-42a1 1 0 0 1 1-1h22a4 4 0 0 0 0-8h-24a7.008 7.008 0 0 0 -7 7v46a7.008 7.008 0 0 0 7 7h46a7.008 7.008 0 0 0 7-7v-24a4 4 0 0 0 -4-4zm2 28a5 5 0 0 1 -5 5h-46a5 5 0 0 1 -5-5v-46a5 5 0 0 1 5-5h24a2 2 0 0 1 0 4h-22a3.009 3.009 0 0 0 -3 3v42a3.009 3.009 0 0 0 3 3h42a3.009 3.009 0 0 0 3-3v-22a2 2 0 0 1 4 0z"/></g></svg>