<svg height="496pt" viewBox="-48 0 496 496" width="496pt" xmlns="http://www.w3.org/2000/svg"><path d="m392 496h-342.089844c-27.519531 0-49.910156-22.390625-49.910156-49.910156v-1.011719c0-27.519531 22.390625-49.910156 49.910156-49.910156h342.089844c4.425781 0 8 3.574219 8 8v84.832031c0 4.425781-3.574219 8-8 8zm-342.089844-84.832031c-18.703125 0-33.910156 15.207031-33.910156 33.910156v1.011719c0 18.703125 15.207031 33.910156 33.910156 33.910156h334.089844v-68.832031zm0 0"/><path d="m8 453.078125c-4.414062 0-8-3.574219-8-8v-394.664063c0-27.796874 23.144531-50.414062 51.59375-50.414062h340.40625c4.425781 0 8 3.574219 8 8v395.167969c0 4.425781-3.574219 8-8 8h-342.089844c-4.414062 0-8-3.574219-8-8s3.585938-8 8-8h334.089844v-379.167969h-332.40625c-19.625 0-35.59375 15.441406-35.59375 34.414062v394.664063c0 4.425781-3.585938 8-8 8zm0 0"/><path d="m331.96875 454.144531h-257.914062c-4.414063 0-8-3.578125-8-8 0-4.425781 3.585937-8 8-8h257.914062c4.421875 0 8 3.574219 8 8 0 4.421875-3.578125 8-8 8zm0 0"/><path d="m328.121094 126.761719c-1.449219 0-2.882813-.394531-4.167969-1.167969l-33.167969-20.210938-33.167968 20.210938c-2.472657 1.511719-5.5625 1.558594-8.082032.148438-2.519531-1.414063-4.085937-4.085938-4.085937-6.972657v-110.769531c0-4.425781 3.574219-8 8-8 4.421875 0 8 3.574219 8 8v96.511719l25.167969-15.335938c2.558593-1.558593 5.765624-1.558593 8.328124 0l25.167969 15.335938v-96.511719c0-4.425781 3.574219-8 8-8 4.421875 0 8 3.574219 8 8v110.761719c0 2.886719-1.5625 5.558593-4.089843 6.972656-1.199219.679687-2.550782 1.027344-3.902344 1.027344zm0 0"/></svg>