<?xml version="1.0" encoding="UTF-8" standalone="no"?>
<!-- Created with Inkscape (http://www.inkscape.org/) -->

<svg
   version="1.1"
   id="svg2337"
   width="682.66669"
   height="682.66669"
   viewBox="0 0 682.66669 682.66669"
   xmlns="http://www.w3.org/2000/svg"
   xmlns:svg="http://www.w3.org/2000/svg">
  <defs
     id="defs2341">
    <clipPath
       clipPathUnits="userSpaceOnUse"
       id="clipPath2351">
      <path
         d="M 0,512 H 512 V 0 H 0 Z"
         id="path2349" />
    </clipPath>
  </defs>
  <g
     id="g2343"
     transform="matrix(1.3333333,0,0,-1.3333333,0,682.66667)">
    <g
       id="g2345">
      <g
         id="g2347"
         clip-path="url(#clipPath2351)">
        <g
           id="g2353"
           transform="translate(102,230)">
          <path
             d="M 0,0 C 0,85.05 68.95,154 154,154 239.05,154 308,85.05 308,0 V -79.917 H 0 Z"
             style="fill:#fdc202;fill-opacity:1;fill-rule:nonzero;stroke:none"
             id="path2355" />
        </g>
        <g
           id="g2357"
           transform="translate(273.5,383.02)">
          <path
             d="m 0,0 c -76.811,-8.69 -136.5,-73.89 -136.5,-153.02 v -79.92 h -35 v 79.92 c 0,85.05 68.95,154 154,154 C -11.58,0.98 -5.74,0.65 0,0"
             style="fill:#f0a70a;fill-opacity:1;fill-rule:nonzero;stroke:none"
             id="path2359" />
        </g>
        <g
           id="g2361"
           transform="translate(440.4883,272.7031)">
          <path
             d="m 0,0 c -24.294,0.191 -45.341,-13.751 -55.439,-34.092 -0.596,-1.199 -2.198,-1.387 -3.088,-0.387 -7.106,7.986 -17.456,13.02 -28.987,13.02 -21.425,0 -38.796,-17.37 -38.796,-38.796 0,-2.168 0.184,-4.293 0.53,-6.364 0.19,-1.142 -0.681,-2.18 -1.838,-2.18 h -56.371 c -14.67,0 -27.07,-11.502 -27.472,-26.166 -0.417,-15.214 11.792,-27.679 26.912,-27.679 H -0.494 c 33.527,0 60.77,26.907 61.313,60.306 C 61.37,-28.476 33.865,-0.267 0,0"
             style="fill:#a0cafe;fill-opacity:1;fill-rule:nonzero;stroke:none"
             id="path2363" />
        </g>
        <g
           id="g2365"
           transform="translate(501.3203,211.3774)">
          <path
             d="m 0,0 c 0,-33.86 -27.46,-61.32 -61.33,-61.32 h -184.051 c -14.869,0 -26.92,12.06 -26.92,26.92 0,4.32 1.021,8.4 2.83,12.02 1.231,-0.18 2.5,-0.27 3.781,-0.27 h 184.049 c 33.87,0 61.33,27.45 61.33,61.32 0,2.47 -0.149,4.91 -0.439,7.309 C -8.03,34.75 0,18.31 0,0"
             style="fill:#81b8fd;fill-opacity:1;fill-rule:nonzero;stroke:none"
             id="path2367" />
        </g>
        <g
           id="g2369"
           transform="translate(66.0459,234.125)">
          <path
             d="m 0,0 c 23.691,1.107 44.402,-12.13 54.223,-31.764 0.586,-1.171 2.168,-1.414 3.041,-0.438 6.662,7.446 16.341,12.136 27.121,12.136 20.098,0 36.391,-16.293 36.391,-36.392 0,-1.994 -0.166,-3.949 -0.477,-5.855 -0.186,-1.134 0.689,-2.159 1.839,-2.159 h 157.014 c 14.159,0 26.086,-11.587 25.818,-25.742 -0.26,-13.722 -11.465,-24.765 -25.249,-24.765 H 2.759 c -32.671,0 -58.981,27.237 -57.459,60.244 C -53.343,-25.285 -29.449,-1.376 0,0"
             style="fill:#c0dbff;fill-opacity:1;fill-rule:nonzero;stroke:none"
             id="path2371" />
        </g>
        <g
           id="g2373"
           transform="translate(371.0195,144.397)">
          <path
             d="m 0,0 c 0,-13.95 -11.31,-25.25 -25.25,-25.25 h -276.97 c -31.759,0 -57.519,25.75 -57.519,57.52 0,29.69 22.5,54.12 51.37,57.19 -4.051,-7.88 -6.34,-16.81 -6.34,-26.28 0,-31.76 25.75,-57.52 57.52,-57.52 H -0.649 C -0.22,3.84 0,1.95 0,0"
             style="fill:#a0cafe;fill-opacity:1;fill-rule:nonzero;stroke:none"
             id="path2375" />
        </g>
        <g
           id="g2377"
           transform="translate(344.9365,169.6475)">
          <path
             d="m 0,0 c -31.401,0 -61.421,-14.95 -72.925,-43.545 -0.71,-1.765 -2.978,-2.301 -4.41,-1.049 -32.211,28.159 -84.073,0.649 -77.153,-42.691 0.274,-1.721 -1.023,-3.29 -2.766,-3.29 h -35.366 c -18.292,0 -33.61,-14.969 -33.261,-33.258 0.34,-17.723 14.813,-31.986 32.616,-31.986 H -2.562 C 99.816,-155.819 106.414,0 0,0"
             style="fill:#e6f1ff;fill-opacity:1;fill-rule:nonzero;stroke:none"
             id="path2379" />
        </g>
        <g
           id="g2381"
           transform="translate(406.3398,142.2573)">
          <path
             d="m 0,0 c -9.729,4.17 -21.15,6.55 -34.29,6.55 -31.399,0 -61.42,-14.95 -72.92,-43.55 -0.71,-1.76 -2.979,-2.3 -4.41,-1.04 -32.21,28.16 -84.08,0.65 -77.159,-42.7 0.279,-1.72 -1.021,-3.29 -2.761,-3.29 h -35.37 c -18.29,0 -33.61,-14.96 -33.26,-33.25 0.07,-3.86 0.82,-7.56 2.13,-10.98 -16.22,1.67 -28.92,15.22 -29.239,31.82 -0.351,18.29 14.959,33.26 33.259,33.26 h 35.36 c 1.75,0 3.04,1.56 2.77,3.29 -6.92,43.34 44.94,70.85 77.15,42.69 1.43,-1.26 3.7,-0.72 4.41,1.04 11.51,28.6 41.52,43.55 72.93,43.55 C -32.99,27.39 -12.63,16.28 0,0"
             style="fill:#d9e9ff;fill-opacity:1;fill-rule:nonzero;stroke:none"
             id="path2383" />
        </g>
        <g
           id="g2385"
           transform="translate(410,150.0801)">
          <path
             d="M 0,0 H -10.75"
             style="fill:none;stroke:#000000;stroke-width:15;stroke-linecap:round;stroke-linejoin:round;stroke-miterlimit:10;stroke-dasharray:350, 30;stroke-dashoffset:0;stroke-opacity:1"
             id="path2387" />
        </g>
        <g
           id="g2389"
           transform="translate(102,223.6602)">
          <path
             d="m 0,0 v 6.34 c 0,85.05 68.95,154 154,154 73.8,0 135.48,-51.92 150.5,-121.23"
             style="fill:none;stroke:#000000;stroke-width:15;stroke-linecap:round;stroke-linejoin:round;stroke-miterlimit:10;stroke-dasharray:350, 30;stroke-dashoffset:0;stroke-opacity:1"
             id="path2391" />
        </g>
        <g
           id="g2393"
           transform="translate(399.25,150.0801)">
          <path
             d="m 0,0 h 10.75 29.99 c 33.87,0 61.33,27.46 61.33,61.33 0,33.86 -27.46,61.32 -61.33,61.32 -12.36,0 -23.87,-3.66 -33.49,-9.96 -9.93,-6.49 -17.87,-15.79 -22.68,-26.77 -7.09,9.28 -18.27,15.27 -30.85,15.27 -21.42,0 -38.79,-17.37 -38.79,-38.8 0,-2.94 0.34,-5.79 0.95,-8.54 h -59.19 c -14.87,0 -26.92,-12.06 -26.92,-26.93 0,-2.54 0.35,-4.99 1.02,-7.32"
             style="fill:none;stroke:#000000;stroke-width:15;stroke-linecap:round;stroke-linejoin:round;stroke-miterlimit:10;stroke-dasharray:630, 30;stroke-dashoffset:0;stroke-opacity:1"
             id="path2395" />
        </g>
        <g
           id="g2397"
           transform="translate(347.1699,169.6401)">
          <path
             d="m 0,0 c -0.74,0.02 -1.48,0.03 -2.23,0.03 -32.799,0 -64.081,-16.3 -74.35,-47.43 -21.5,22.07 -53.71,16.57 -70.21,-3.07 h -131.58 c -31.76,0 -57.52,25.75 -57.52,57.52 0,31.77 25.76,57.52 57.52,57.52 12.37,0 23.82,-3.9 33.2,-10.55 8.49,-6.01 15.28,-14.26 19.5,-23.9 6.65,8.7 17.13,14.32 28.93,14.32 20.1,0 36.39,-16.29 36.39,-36.39 0,-2.75 -0.31,-5.43 -0.89,-8.01 H -1.4 C -0.93,0.04 -0.46,0.03 0,0 Z"
             style="fill:none;stroke:#000000;stroke-width:15;stroke-linecap:round;stroke-linejoin:round;stroke-miterlimit:10;stroke-dasharray:none;stroke-opacity:1"
             id="path2399" />
        </g>
        <g
           id="g2401"
           transform="translate(200.3799,119.1699)">
          <path
             d="m 0,0 c -8.55,-10.18 -12.88,-24.16 -9.3,-40.07 h -39.41 c -18.01,0 -32.62,-14.61 -32.62,-32.63 0,-18.01 14.61,-32.62 32.62,-32.62 h 190.7 c 79.68,0 101.34,94.37 56.88,136.23 -12.269,11.55 -29.57,19.1 -52.08,19.56"
             style="fill:none;stroke:#000000;stroke-width:15;stroke-linecap:round;stroke-linejoin:round;stroke-miterlimit:10;stroke-dasharray:none;stroke-opacity:1"
             id="path2403" />
        </g>
        <g
           id="g2405"
           transform="translate(256,480.1665)">
          <path
             d="M 0,0 V -34.667"
             style="fill:none;stroke:#000000;stroke-width:15;stroke-linecap:round;stroke-linejoin:round;stroke-miterlimit:10;stroke-dasharray:630, 30;stroke-dashoffset:0;stroke-opacity:1"
             id="path2407" />
        </g>
        <g
           id="g2409"
           transform="translate(160.0312,455.7661)">
          <path
             d="M 0,0 11.856,-32.576"
             style="fill:none;stroke:#000000;stroke-width:15;stroke-linecap:round;stroke-linejoin:round;stroke-miterlimit:10;stroke-dasharray:630, 30;stroke-dashoffset:0;stroke-opacity:1"
             id="path2411" />
        </g>
        <g
           id="g2413"
           transform="translate(79.7168,400.6938)">
          <path
             d="M 0,0 22.283,-26.556"
             style="fill:none;stroke:#000000;stroke-width:15;stroke-linecap:round;stroke-linejoin:round;stroke-miterlimit:10;stroke-dasharray:630, 30;stroke-dashoffset:0;stroke-opacity:1"
             id="path2415" />
        </g>
        <g
           id="g2417"
           transform="translate(27.9873,323.7607)">
          <path
             d="M 0,0 30.022,-17.333"
             style="fill:none;stroke:#000000;stroke-width:15;stroke-linecap:round;stroke-linejoin:round;stroke-miterlimit:10;stroke-dasharray:630, 30;stroke-dashoffset:0;stroke-opacity:1"
             id="path2419" />
        </g>
        <g
           id="g2421"
           transform="translate(351.9687,455.7661)">
          <path
             d="M 0,0 -11.856,-32.576"
             style="fill:none;stroke:#000000;stroke-width:15;stroke-linecap:round;stroke-linejoin:round;stroke-miterlimit:10;stroke-dasharray:630, 30;stroke-dashoffset:0;stroke-opacity:1"
             id="path2423" />
        </g>
        <g
           id="g2425"
           transform="translate(432.2832,400.6938)">
          <path
             d="M 0,0 -22.283,-26.556"
             style="fill:none;stroke:#000000;stroke-width:15;stroke-linecap:round;stroke-linejoin:round;stroke-miterlimit:10;stroke-dasharray:630, 30;stroke-dashoffset:0;stroke-opacity:1"
             id="path2427" />
        </g>
        <g
           id="g2429"
           transform="translate(484.0127,323.7607)">
          <path
             d="M 0,0 -30.022,-17.333"
             style="fill:none;stroke:#000000;stroke-width:15;stroke-linecap:round;stroke-linejoin:round;stroke-miterlimit:10;stroke-dasharray:630, 30;stroke-dashoffset:0;stroke-opacity:1"
             id="path2431" />
        </g>
      </g>
    </g>
  </g>
</svg>
